<svg width="340" height="296" viewBox="0 0 340 296" fill="none" xmlns="http://www.w3.org/2000/svg">
<path opacity="0.2" d="M59 98V218" stroke="white"/>
<g filter="url(#filter0_b_115_260)">
<path d="M0 13.0049C0 5.8225 5.8225 0 13.0049 0H326.995C334.178 0 340 5.8225 340 13.0049V282.995C340 290.177 334.177 296 326.995 296H13.0049C5.82249 296 0 290.177 0 282.995V13.0049Z" fill="white" fill-opacity="0.29"/>
</g>
<path opacity="0.2" d="M139 98V218" stroke="white"/>
<path opacity="0.2" d="M219 98V218" stroke="white"/>
<path opacity="0.2" d="M299 98V218" stroke="white"/>
<path d="M50.7999 261H52.4379V250.57H48.7979V251.97H50.7999V261ZM58.0044 261.168C58.7044 261.168 59.3297 261.014 59.8804 260.706C60.431 260.398 60.8604 259.978 61.1684 259.446C61.4857 258.914 61.6444 258.317 61.6444 257.654C61.6444 257.001 61.4997 256.417 61.2104 255.904C60.9304 255.381 60.5337 254.971 60.0204 254.672C59.5164 254.364 58.9237 254.21 58.2424 254.21C57.5424 254.21 56.9637 254.369 56.5064 254.686L56.8704 251.97H61.2524V250.57H55.6944L54.8824 256.31L56.2124 256.604C56.3617 256.305 56.595 256.067 56.9124 255.89C57.239 255.713 57.603 255.624 58.0044 255.624C58.583 255.624 59.059 255.815 59.4324 256.198C59.815 256.571 60.0064 257.057 60.0064 257.654C60.0064 258.251 59.815 258.741 59.4324 259.124C59.059 259.507 58.583 259.698 58.0044 259.698C57.519 259.698 57.0804 259.567 56.6884 259.306C56.2964 259.045 56.007 258.667 55.8204 258.172L54.4344 258.704C54.5837 259.208 54.831 259.647 55.1764 260.02C55.531 260.384 55.951 260.669 56.4364 260.874C56.931 261.07 57.4537 261.168 58.0044 261.168ZM66.0576 254.994C66.487 254.994 66.8743 254.891 67.2196 254.686C67.5743 254.481 67.8543 254.205 68.0596 253.86C68.265 253.515 68.3676 253.127 68.3676 252.698C68.3676 252.269 68.265 251.881 68.0596 251.536C67.8543 251.191 67.5743 250.915 67.2196 250.71C66.8743 250.505 66.487 250.402 66.0576 250.402C65.6283 250.402 65.2363 250.505 64.8816 250.71C64.5363 250.915 64.261 251.191 64.0556 251.536C63.8503 251.881 63.7476 252.269 63.7476 252.698C63.7476 253.127 63.8503 253.515 64.0556 253.86C64.261 254.205 64.5363 254.481 64.8816 254.686C65.2363 254.891 65.6283 254.994 66.0576 254.994ZM66.0436 253.86C65.7263 253.86 65.451 253.753 65.2176 253.538C64.9936 253.323 64.8816 253.043 64.8816 252.698C64.8816 252.362 64.9936 252.087 65.2176 251.872C65.451 251.648 65.7263 251.536 66.0436 251.536C66.3703 251.536 66.6456 251.648 66.8696 251.872C67.103 252.087 67.2196 252.362 67.2196 252.698C67.2196 253.043 67.103 253.323 66.8696 253.538C66.6456 253.753 66.3703 253.86 66.0436 253.86Z" fill="white"/>
<path d="M37.3587 233H38.3187V225.908L41.2947 230.24H41.3427L44.3187 225.932V233H45.2787V224.06H44.4387L41.3187 228.596L38.1987 224.06H37.3587V233ZM50.27 233.144C50.87 233.144 51.414 233 51.902 232.712C52.398 232.424 52.794 232.028 53.09 231.524C53.386 231.012 53.534 230.428 53.534 229.772C53.534 229.124 53.39 228.548 53.102 228.044C52.822 227.54 52.434 227.144 51.938 226.856C51.45 226.568 50.894 226.424 50.27 226.424C49.646 226.424 49.086 226.572 48.59 226.868C48.102 227.156 47.714 227.552 47.426 228.056C47.138 228.56 46.994 229.132 46.994 229.772C46.994 230.42 47.138 231 47.426 231.512C47.722 232.016 48.118 232.416 48.614 232.712C49.11 233 49.662 233.144 50.27 233.144ZM50.27 232.244C49.838 232.244 49.446 232.136 49.094 231.92C48.75 231.704 48.474 231.408 48.266 231.032C48.058 230.656 47.954 230.236 47.954 229.772C47.954 229.308 48.058 228.892 48.266 228.524C48.474 228.156 48.75 227.864 49.094 227.648C49.446 227.432 49.838 227.324 50.27 227.324C50.702 227.324 51.09 227.432 51.434 227.648C51.786 227.864 52.062 228.156 52.262 228.524C52.47 228.892 52.574 229.308 52.574 229.772C52.574 230.236 52.47 230.656 52.262 231.032C52.062 231.408 51.786 231.704 51.434 231.92C51.09 232.136 50.702 232.244 50.27 232.244ZM55.1213 233H56.0213V229.04C56.0213 228.512 56.1613 228.104 56.4413 227.816C56.7213 227.528 57.0933 227.384 57.5573 227.384H58.1213V226.484H57.7133C57.3213 226.484 56.9813 226.552 56.6933 226.688C56.4133 226.824 56.1893 227.016 56.0213 227.264V226.568H55.1213V233ZM59.176 233H60.076V229.172C60.076 228.596 60.236 228.144 60.556 227.816C60.876 227.488 61.28 227.324 61.768 227.324C62.264 227.324 62.664 227.488 62.968 227.816C63.28 228.136 63.436 228.588 63.436 229.172V233H64.336V228.824C64.336 228.368 64.228 227.96 64.012 227.6C63.804 227.232 63.516 226.944 63.148 226.736C62.788 226.528 62.38 226.424 61.924 226.424C61.524 226.424 61.164 226.508 60.844 226.676C60.524 226.844 60.268 227.072 60.076 227.36V226.568H59.176V233ZM66.0549 225.38H66.9549V224.06H66.0549V225.38ZM66.0549 233H66.9549V226.568H66.0549V233ZM68.797 233H69.697V229.172C69.697 228.596 69.857 228.144 70.177 227.816C70.497 227.488 70.901 227.324 71.389 227.324C71.885 227.324 72.285 227.488 72.589 227.816C72.901 228.136 73.057 228.588 73.057 229.172V233H73.957V228.824C73.957 228.368 73.849 227.96 73.633 227.6C73.425 227.232 73.137 226.944 72.769 226.736C72.409 226.528 72.001 226.424 71.545 226.424C71.145 226.424 70.785 226.508 70.465 226.676C70.145 226.844 69.889 227.072 69.697 227.36V226.568H68.797V233ZM78.724 235.64C79.316 235.64 79.84 235.512 80.296 235.256C80.76 235.008 81.12 234.664 81.376 234.224C81.64 233.792 81.772 233.3 81.772 232.748V226.568H80.872V227.54C80.616 227.196 80.288 226.924 79.888 226.724C79.488 226.524 79.052 226.424 78.58 226.424C77.972 226.424 77.428 226.568 76.948 226.856C76.476 227.144 76.1 227.532 75.82 228.02C75.548 228.508 75.412 229.056 75.412 229.664C75.412 230.264 75.548 230.812 75.82 231.308C76.1 231.796 76.48 232.184 76.96 232.472C77.44 232.76 77.98 232.904 78.58 232.904C79.052 232.904 79.492 232.8 79.9 232.592C80.308 232.384 80.632 232.092 80.872 231.716V232.748C80.872 233.18 80.772 233.544 80.572 233.84C80.372 234.136 80.108 234.36 79.78 234.512C79.452 234.664 79.092 234.74 78.7 234.74C78.188 234.74 77.768 234.628 77.44 234.404C77.112 234.18 76.884 233.916 76.756 233.612L75.928 234.056C76.144 234.52 76.496 234.9 76.984 235.196C77.48 235.492 78.06 235.64 78.724 235.64ZM78.628 232.004C78.196 232.004 77.808 231.9 77.464 231.692C77.128 231.476 76.86 231.192 76.66 230.84C76.468 230.48 76.372 230.088 76.372 229.664C76.372 229.232 76.468 228.84 76.66 228.488C76.86 228.136 77.132 227.856 77.476 227.648C77.82 227.432 78.204 227.324 78.628 227.324C79.044 227.324 79.42 227.432 79.756 227.648C80.092 227.856 80.36 228.14 80.56 228.5C80.768 228.852 80.872 229.24 80.872 229.664C80.872 230.088 80.768 230.48 80.56 230.84C80.36 231.192 80.092 231.476 79.756 231.692C79.42 231.9 79.044 232.004 78.628 232.004Z" fill="white"/>
<path d="M130.581 261H132.219V250.57H128.579V251.97H130.581V261ZM139.116 261H140.684V258.648H142.126V257.276H140.684V250.57H139.046L134.146 257.276V258.648H139.116V261ZM139.116 257.276H135.798L139.116 252.656V257.276ZM146.276 254.994C146.706 254.994 147.093 254.891 147.438 254.686C147.793 254.481 148.073 254.205 148.278 253.86C148.484 253.515 148.586 253.127 148.586 252.698C148.586 252.269 148.484 251.881 148.278 251.536C148.073 251.191 147.793 250.915 147.438 250.71C147.093 250.505 146.706 250.402 146.276 250.402C145.847 250.402 145.455 250.505 145.1 250.71C144.755 250.915 144.48 251.191 144.274 251.536C144.069 251.881 143.966 252.269 143.966 252.698C143.966 253.127 144.069 253.515 144.274 253.86C144.48 254.205 144.755 254.481 145.1 254.686C145.455 254.891 145.847 254.994 146.276 254.994ZM146.262 253.86C145.945 253.86 145.67 253.753 145.436 253.538C145.212 253.323 145.1 253.043 145.1 252.698C145.1 252.362 145.212 252.087 145.436 251.872C145.67 251.648 145.945 251.536 146.262 251.536C146.589 251.536 146.864 251.648 147.088 251.872C147.322 252.087 147.438 252.362 147.438 252.698C147.438 253.043 147.322 253.323 147.088 253.538C146.864 253.753 146.589 253.86 146.262 253.86Z" fill="white"/>
<path d="M114.183 233H115.191L115.971 230.816H119.967L120.735 233H121.743L118.479 224.06H117.447L114.183 233ZM116.283 229.916L117.963 225.188L119.631 229.916H116.283ZM123.229 233H124.129V227.468H125.701V226.568H124.129V225.992C124.129 225.536 124.257 225.216 124.513 225.032C124.769 224.848 125.089 224.756 125.473 224.756C125.513 224.756 125.581 224.76 125.677 224.768C125.773 224.768 125.849 224.776 125.905 224.792V223.976C125.841 223.96 125.757 223.948 125.653 223.94C125.549 223.924 125.457 223.916 125.377 223.916C125.001 223.916 124.649 223.996 124.321 224.156C123.993 224.316 123.729 224.552 123.529 224.864C123.329 225.168 123.229 225.544 123.229 225.992V226.568H121.945V227.468H123.229V233ZM129.857 233.072C129.929 233.072 130.025 233.068 130.145 233.06C130.265 233.052 130.373 233.036 130.469 233.012V232.196C130.405 232.204 130.329 232.212 130.241 232.22C130.153 232.228 130.077 232.232 130.013 232.232C129.613 232.232 129.337 232.128 129.185 231.92C129.033 231.712 128.957 231.448 128.957 231.128V227.468H130.373V226.568H128.957V225.08H128.057V225.62C128.057 225.892 127.977 226.12 127.817 226.304C127.657 226.48 127.441 226.568 127.169 226.568H126.869V227.468H128.057V231.128C128.057 231.752 128.213 232.232 128.525 232.568C128.837 232.904 129.281 233.072 129.857 233.072ZM134.743 233.144C135.183 233.144 135.583 233.072 135.943 232.928C136.311 232.776 136.627 232.58 136.891 232.34C137.155 232.092 137.351 231.824 137.479 231.536L136.711 231.128C136.511 231.464 136.251 231.744 135.931 231.968C135.611 232.192 135.215 232.304 134.743 232.304C134.359 232.304 133.999 232.212 133.663 232.028C133.327 231.844 133.051 231.588 132.835 231.26C132.627 230.924 132.515 230.524 132.499 230.06H137.563C137.579 229.956 137.591 229.856 137.599 229.76C137.607 229.656 137.611 229.564 137.611 229.484C137.611 229.1 137.543 228.728 137.407 228.368C137.271 228 137.075 227.672 136.819 227.384C136.563 227.088 136.251 226.856 135.883 226.688C135.523 226.512 135.111 226.424 134.647 226.424C134.063 226.424 133.535 226.568 133.063 226.856C132.599 227.144 132.231 227.54 131.959 228.044C131.687 228.54 131.551 229.112 131.551 229.76C131.551 230.408 131.691 230.988 131.971 231.5C132.251 232.012 132.631 232.416 133.111 232.712C133.599 233 134.143 233.144 134.743 233.144ZM134.647 227.264C135.007 227.264 135.335 227.348 135.631 227.516C135.935 227.684 136.175 227.916 136.351 228.212C136.535 228.5 136.631 228.836 136.639 229.22H132.523C132.571 228.82 132.695 228.476 132.895 228.188C133.103 227.892 133.359 227.664 133.663 227.504C133.967 227.344 134.295 227.264 134.647 227.264ZM139.197 233H140.097V229.04C140.097 228.512 140.237 228.104 140.517 227.816C140.797 227.528 141.169 227.384 141.633 227.384H142.197V226.484H141.789C141.397 226.484 141.057 226.552 140.769 226.688C140.489 226.824 140.265 227.016 140.097 227.264V226.568H139.197V233ZM143.252 233H144.152V229.172C144.152 228.596 144.312 228.144 144.632 227.816C144.952 227.488 145.356 227.324 145.844 227.324C146.34 227.324 146.74 227.488 147.044 227.816C147.356 228.136 147.512 228.588 147.512 229.172V233H148.412V228.824C148.412 228.368 148.304 227.96 148.088 227.6C147.88 227.232 147.592 226.944 147.224 226.736C146.864 226.528 146.456 226.424 146 226.424C145.6 226.424 145.24 226.508 144.92 226.676C144.6 226.844 144.344 227.072 144.152 227.36V226.568H143.252V233ZM153.143 233.144C153.743 233.144 154.287 233 154.775 232.712C155.271 232.424 155.667 232.028 155.963 231.524C156.259 231.012 156.407 230.428 156.407 229.772C156.407 229.124 156.263 228.548 155.975 228.044C155.695 227.54 155.307 227.144 154.811 226.856C154.323 226.568 153.767 226.424 153.143 226.424C152.519 226.424 151.959 226.572 151.463 226.868C150.975 227.156 150.587 227.552 150.299 228.056C150.011 228.56 149.867 229.132 149.867 229.772C149.867 230.42 150.011 231 150.299 231.512C150.595 232.016 150.991 232.416 151.487 232.712C151.983 233 152.535 233.144 153.143 233.144ZM153.143 232.244C152.711 232.244 152.319 232.136 151.967 231.92C151.623 231.704 151.347 231.408 151.139 231.032C150.931 230.656 150.827 230.236 150.827 229.772C150.827 229.308 150.931 228.892 151.139 228.524C151.347 228.156 151.623 227.864 151.967 227.648C152.319 227.432 152.711 227.324 153.143 227.324C153.575 227.324 153.963 227.432 154.307 227.648C154.659 227.864 154.935 228.156 155.135 228.524C155.343 228.892 155.447 229.308 155.447 229.772C155.447 230.236 155.343 230.656 155.135 231.032C154.935 231.408 154.659 231.704 154.307 231.92C153.963 232.136 153.575 232.244 153.143 232.244ZM157.994 233H158.894V229.172C158.894 228.596 159.054 228.144 159.374 227.816C159.694 227.488 160.098 227.324 160.586 227.324C161.082 227.324 161.482 227.488 161.786 227.816C162.098 228.136 162.254 228.588 162.254 229.172V233H163.154V228.824C163.154 228.368 163.046 227.96 162.83 227.6C162.622 227.232 162.334 226.944 161.966 226.736C161.606 226.528 161.198 226.424 160.742 226.424C160.342 226.424 159.982 226.508 159.662 226.676C159.342 226.844 159.086 227.072 158.894 227.36V226.568H157.994V233Z" fill="white"/>
<path d="M211.471 261H213.109V250.57H209.469V251.97H211.471V261ZM218.567 261.168C219.248 261.168 219.855 261.019 220.387 260.72C220.919 260.421 221.339 260.015 221.647 259.502C221.955 258.979 222.109 258.391 222.109 257.738C222.109 257.094 221.964 256.525 221.675 256.03C221.395 255.526 221.007 255.134 220.513 254.854C220.018 254.565 219.458 254.42 218.833 254.42C218.59 254.42 218.371 254.448 218.175 254.504L221.213 250.57H219.239L216.327 254.392C215.832 255.036 215.491 255.619 215.305 256.142C215.127 256.665 215.039 257.187 215.039 257.71C215.039 258.373 215.188 258.965 215.487 259.488C215.795 260.011 216.215 260.421 216.747 260.72C217.279 261.019 217.885 261.168 218.567 261.168ZM218.567 259.698C218.212 259.698 217.89 259.614 217.601 259.446C217.321 259.278 217.097 259.049 216.929 258.76C216.761 258.461 216.677 258.125 216.677 257.752C216.677 257.183 216.854 256.721 217.209 256.366C217.573 256.002 218.025 255.82 218.567 255.82C219.108 255.82 219.556 256.002 219.911 256.366C220.275 256.721 220.457 257.183 220.457 257.752C220.457 258.321 220.275 258.788 219.911 259.152C219.556 259.516 219.108 259.698 218.567 259.698ZM226.387 254.994C226.816 254.994 227.203 254.891 227.549 254.686C227.903 254.481 228.183 254.205 228.389 253.86C228.594 253.515 228.697 253.127 228.697 252.698C228.697 252.269 228.594 251.881 228.389 251.536C228.183 251.191 227.903 250.915 227.549 250.71C227.203 250.505 226.816 250.402 226.387 250.402C225.957 250.402 225.565 250.505 225.211 250.71C224.865 250.915 224.59 251.191 224.385 251.536C224.179 251.881 224.077 252.269 224.077 252.698C224.077 253.127 224.179 253.515 224.385 253.86C224.59 254.205 224.865 254.481 225.211 254.686C225.565 254.891 225.957 254.994 226.387 254.994ZM226.373 253.86C226.055 253.86 225.78 253.753 225.547 253.538C225.323 253.323 225.211 253.043 225.211 252.698C225.211 252.362 225.323 252.087 225.547 251.872C225.78 251.648 226.055 251.536 226.373 251.536C226.699 251.536 226.975 251.648 227.199 251.872C227.432 252.087 227.549 252.362 227.549 252.698C227.549 253.043 227.432 253.323 227.199 253.538C226.975 253.753 226.699 253.86 226.373 253.86Z" fill="white"/>
<path d="M197.427 233H203.187V232.1H198.387V228.968H202.947V228.068H198.387V224.96H203.187V224.06H197.427V233ZM206.359 233H207.259L209.791 226.568H208.771L206.815 231.776L204.859 226.568H203.851L206.359 233ZM213.653 233.144C214.093 233.144 214.493 233.072 214.853 232.928C215.221 232.776 215.537 232.58 215.801 232.34C216.065 232.092 216.261 231.824 216.389 231.536L215.621 231.128C215.421 231.464 215.161 231.744 214.841 231.968C214.521 232.192 214.125 232.304 213.653 232.304C213.269 232.304 212.909 232.212 212.573 232.028C212.237 231.844 211.961 231.588 211.745 231.26C211.537 230.924 211.425 230.524 211.409 230.06H216.473C216.489 229.956 216.501 229.856 216.509 229.76C216.517 229.656 216.521 229.564 216.521 229.484C216.521 229.1 216.453 228.728 216.317 228.368C216.181 228 215.985 227.672 215.729 227.384C215.473 227.088 215.161 226.856 214.793 226.688C214.433 226.512 214.021 226.424 213.557 226.424C212.973 226.424 212.445 226.568 211.973 226.856C211.509 227.144 211.141 227.54 210.869 228.044C210.597 228.54 210.461 229.112 210.461 229.76C210.461 230.408 210.601 230.988 210.881 231.5C211.161 232.012 211.541 232.416 212.021 232.712C212.509 233 213.053 233.144 213.653 233.144ZM213.557 227.264C213.917 227.264 214.245 227.348 214.541 227.516C214.845 227.684 215.085 227.916 215.261 228.212C215.445 228.5 215.541 228.836 215.549 229.22H211.433C211.481 228.82 211.605 228.476 211.805 228.188C212.013 227.892 212.269 227.664 212.573 227.504C212.877 227.344 213.205 227.264 213.557 227.264ZM218.108 233H219.008V229.172C219.008 228.596 219.168 228.144 219.488 227.816C219.808 227.488 220.212 227.324 220.7 227.324C221.196 227.324 221.596 227.488 221.9 227.816C222.212 228.136 222.368 228.588 222.368 229.172V233H223.268V228.824C223.268 228.368 223.16 227.96 222.944 227.6C222.736 227.232 222.448 226.944 222.08 226.736C221.72 226.528 221.312 226.424 220.856 226.424C220.456 226.424 220.096 226.508 219.776 226.676C219.456 226.844 219.2 227.072 219.008 227.36V226.568H218.108V233ZM224.987 225.38H225.887V224.06H224.987V225.38ZM224.987 233H225.887V226.568H224.987V233ZM227.729 233H228.629V229.172C228.629 228.596 228.789 228.144 229.109 227.816C229.429 227.488 229.833 227.324 230.321 227.324C230.817 227.324 231.217 227.488 231.521 227.816C231.833 228.136 231.989 228.588 231.989 229.172V233H232.889V228.824C232.889 228.368 232.781 227.96 232.565 227.6C232.357 227.232 232.069 226.944 231.701 226.736C231.341 226.528 230.933 226.424 230.477 226.424C230.077 226.424 229.717 226.508 229.397 226.676C229.077 226.844 228.821 227.072 228.629 227.36V226.568H227.729V233ZM237.656 235.64C238.248 235.64 238.772 235.512 239.228 235.256C239.692 235.008 240.052 234.664 240.308 234.224C240.572 233.792 240.704 233.3 240.704 232.748V226.568H239.804V227.54C239.548 227.196 239.22 226.924 238.82 226.724C238.42 226.524 237.984 226.424 237.512 226.424C236.904 226.424 236.36 226.568 235.88 226.856C235.408 227.144 235.032 227.532 234.752 228.02C234.48 228.508 234.344 229.056 234.344 229.664C234.344 230.264 234.48 230.812 234.752 231.308C235.032 231.796 235.412 232.184 235.892 232.472C236.372 232.76 236.912 232.904 237.512 232.904C237.984 232.904 238.424 232.8 238.832 232.592C239.24 232.384 239.564 232.092 239.804 231.716V232.748C239.804 233.18 239.704 233.544 239.504 233.84C239.304 234.136 239.04 234.36 238.712 234.512C238.384 234.664 238.024 234.74 237.632 234.74C237.12 234.74 236.7 234.628 236.372 234.404C236.044 234.18 235.816 233.916 235.688 233.612L234.86 234.056C235.076 234.52 235.428 234.9 235.916 235.196C236.412 235.492 236.992 235.64 237.656 235.64ZM237.56 232.004C237.128 232.004 236.74 231.9 236.396 231.692C236.06 231.476 235.792 231.192 235.592 230.84C235.4 230.48 235.304 230.088 235.304 229.664C235.304 229.232 235.4 228.84 235.592 228.488C235.792 228.136 236.064 227.856 236.408 227.648C236.752 227.432 237.136 227.324 237.56 227.324C237.976 227.324 238.352 227.432 238.688 227.648C239.024 227.856 239.292 228.14 239.492 228.5C239.7 228.852 239.804 229.24 239.804 229.664C239.804 230.088 239.7 230.48 239.492 230.84C239.292 231.192 239.024 231.476 238.688 231.692C238.352 231.9 237.976 232.004 237.56 232.004Z" fill="white"/>
<path d="M290.923 261H292.561V250.57H288.921V251.97H290.923V261ZM294.641 261H301.571V259.6H296.825L299.345 256.912C300.036 256.165 300.545 255.526 300.871 254.994C301.207 254.453 301.375 253.897 301.375 253.328C301.375 252.749 301.235 252.241 300.955 251.802C300.685 251.363 300.302 251.023 299.807 250.78C299.313 250.528 298.734 250.402 298.071 250.402C297.502 250.402 296.975 250.514 296.489 250.738C296.004 250.962 295.593 251.279 295.257 251.69C294.921 252.091 294.693 252.567 294.571 253.118L296.027 253.538C296.167 252.997 296.419 252.586 296.783 252.306C297.147 252.017 297.581 251.872 298.085 251.872C298.58 251.872 298.977 252.012 299.275 252.292C299.583 252.572 299.737 252.959 299.737 253.454C299.737 253.762 299.667 254.056 299.527 254.336C299.387 254.616 299.154 254.943 298.827 255.316C298.501 255.68 298.057 256.161 297.497 256.758L294.641 259.81V261ZM305.935 254.994C306.364 254.994 306.751 254.891 307.097 254.686C307.451 254.481 307.731 254.205 307.937 253.86C308.142 253.515 308.245 253.127 308.245 252.698C308.245 252.269 308.142 251.881 307.937 251.536C307.731 251.191 307.451 250.915 307.097 250.71C306.751 250.505 306.364 250.402 305.935 250.402C305.505 250.402 305.113 250.505 304.759 250.71C304.413 250.915 304.138 251.191 303.933 251.536C303.727 251.881 303.625 252.269 303.625 252.698C303.625 253.127 303.727 253.515 303.933 253.86C304.138 254.205 304.413 254.481 304.759 254.686C305.113 254.891 305.505 254.994 305.935 254.994ZM305.921 253.86C305.603 253.86 305.328 253.753 305.095 253.538C304.871 253.323 304.759 253.043 304.759 252.698C304.759 252.362 304.871 252.087 305.095 251.872C305.328 251.648 305.603 251.536 305.921 251.536C306.247 251.536 306.523 251.648 306.747 251.872C306.98 252.087 307.097 252.362 307.097 252.698C307.097 253.043 306.98 253.323 306.747 253.538C306.523 253.753 306.247 253.86 305.921 253.86Z" fill="white"/>
<path d="M284.529 233H285.489V225.896L290.409 233H291.249V224.06H290.289V231.116L285.369 224.06H284.529V233ZM293.233 225.38H294.133V224.06H293.233V225.38ZM293.233 233H294.133V226.568H293.233V233ZM299.023 235.64C299.615 235.64 300.139 235.512 300.595 235.256C301.059 235.008 301.419 234.664 301.675 234.224C301.939 233.792 302.071 233.3 302.071 232.748V226.568H301.171V227.54C300.915 227.196 300.587 226.924 300.187 226.724C299.787 226.524 299.351 226.424 298.879 226.424C298.271 226.424 297.727 226.568 297.247 226.856C296.775 227.144 296.399 227.532 296.119 228.02C295.847 228.508 295.711 229.056 295.711 229.664C295.711 230.264 295.847 230.812 296.119 231.308C296.399 231.796 296.779 232.184 297.259 232.472C297.739 232.76 298.279 232.904 298.879 232.904C299.351 232.904 299.791 232.8 300.199 232.592C300.607 232.384 300.931 232.092 301.171 231.716V232.748C301.171 233.18 301.071 233.544 300.871 233.84C300.671 234.136 300.407 234.36 300.079 234.512C299.751 234.664 299.391 234.74 298.999 234.74C298.487 234.74 298.067 234.628 297.739 234.404C297.411 234.18 297.183 233.916 297.055 233.612L296.227 234.056C296.443 234.52 296.795 234.9 297.283 235.196C297.779 235.492 298.359 235.64 299.023 235.64ZM298.927 232.004C298.495 232.004 298.107 231.9 297.763 231.692C297.427 231.476 297.159 231.192 296.959 230.84C296.767 230.48 296.671 230.088 296.671 229.664C296.671 229.232 296.767 228.84 296.959 228.488C297.159 228.136 297.431 227.856 297.775 227.648C298.119 227.432 298.503 227.324 298.927 227.324C299.343 227.324 299.719 227.432 300.055 227.648C300.391 227.856 300.659 228.14 300.859 228.5C301.067 228.852 301.171 229.24 301.171 229.664C301.171 230.088 301.067 230.48 300.859 230.84C300.659 231.192 300.391 231.476 300.055 231.692C299.719 231.9 299.343 232.004 298.927 232.004ZM303.92 233H304.82V229.172C304.82 228.596 304.98 228.144 305.3 227.816C305.628 227.488 306.032 227.324 306.512 227.324C306.992 227.324 307.388 227.488 307.7 227.816C308.02 228.136 308.18 228.588 308.18 229.172V233H309.08V228.824C309.08 228.368 308.972 227.96 308.756 227.6C308.548 227.232 308.26 226.944 307.892 226.736C307.532 226.528 307.124 226.424 306.668 226.424C306.268 226.424 305.908 226.508 305.588 226.676C305.268 226.844 305.012 227.072 304.82 227.36V224.06H303.92V233ZM313.259 233.072C313.331 233.072 313.427 233.068 313.547 233.06C313.667 233.052 313.775 233.036 313.871 233.012V232.196C313.807 232.204 313.731 232.212 313.643 232.22C313.555 232.228 313.479 232.232 313.415 232.232C313.015 232.232 312.739 232.128 312.587 231.92C312.435 231.712 312.359 231.448 312.359 231.128V227.468H313.775V226.568H312.359V225.08H311.459V225.62C311.459 225.892 311.379 226.12 311.219 226.304C311.059 226.48 310.843 226.568 310.571 226.568H310.271V227.468H311.459V231.128C311.459 231.752 311.615 232.232 311.927 232.568C312.239 232.904 312.683 233.072 313.259 233.072Z" fill="white"/>
<path d="M22 140.998C22 140.998 29.5 125.498 59 124.998C88.5 124.498 109.5 137.998 139 137.998C168.5 137.998 189 112.498 219 111.998C249 111.498 270.5 145.498 299 145.498C327.5 145.498 334.5 133.498 334.5 133.498" stroke="url(#paint0_linear_115_260)" stroke-width="2"/>
<circle cx="55" cy="124" r="6" fill="#BADCFF"/>
<circle cx="55" cy="124" r="4" fill="white"/>
<circle cx="135" cy="137" r="6" fill="#BADCFF"/>
<circle cx="135" cy="137" r="4" fill="white"/>
<circle cx="215" cy="111" r="6" fill="#BADCFF"/>
<circle cx="215" cy="111" r="4" fill="white"/>
<circle cx="295" cy="144" r="6" fill="#BADCFF"/>
<circle cx="295" cy="144" r="4" fill="white"/>
<path d="M32.18 46H34.52V33.2H38.42V31.1H28.22V33.2H32.18V46ZM43.6383 46.24C44.7449 46.24 45.7049 45.9867 46.5183 45.48C47.3449 44.9733 47.9249 44.3333 48.2583 43.56L46.4183 42.66C46.1516 43.1133 45.7849 43.4933 45.3183 43.8C44.8649 44.0933 44.3116 44.24 43.6583 44.24C42.8049 44.24 42.0783 43.9733 41.4783 43.44C40.8783 42.8933 40.5449 42.16 40.4783 41.24H48.5183C48.5583 41.08 48.5849 40.9067 48.5983 40.72C48.6116 40.5333 48.6183 40.3533 48.6183 40.18C48.6183 39.2467 48.4116 38.3867 47.9983 37.6C47.5983 36.8 47.0116 36.16 46.2383 35.68C45.4783 35.1867 44.5516 34.94 43.4583 34.94C42.4449 34.94 41.5316 35.1867 40.7183 35.68C39.9183 36.16 39.2849 36.8267 38.8183 37.68C38.3516 38.52 38.1183 39.48 38.1183 40.56C38.1183 41.6267 38.3516 42.5933 38.8183 43.46C39.2983 44.3133 39.9516 44.9933 40.7783 45.5C41.6049 45.9933 42.5583 46.24 43.6383 46.24ZM43.4583 36.84C44.2183 36.84 44.8583 37.08 45.3783 37.56C45.8983 38.04 46.1783 38.6667 46.2183 39.44H40.5183C40.6516 38.6133 40.9916 37.9733 41.5383 37.52C42.0849 37.0667 42.7249 36.84 43.4583 36.84ZM50.8239 46H53.0839V39.62C53.0839 38.82 53.2972 38.1933 53.7239 37.74C54.1506 37.2733 54.7039 37.04 55.3839 37.04C56.0639 37.04 56.6172 37.2733 57.0439 37.74C57.4706 38.1933 57.6839 38.82 57.6839 39.62V46H59.9239V39.62C59.9239 38.82 60.1372 38.1933 60.5639 37.74C61.0039 37.2733 61.5639 37.04 62.2439 37.04C62.9239 37.04 63.4706 37.2733 63.8839 37.74C64.3106 38.1933 64.5239 38.82 64.5239 39.62V46H66.7839V39C66.7839 38.2 66.6039 37.5 66.2439 36.9C65.8972 36.2867 65.4172 35.8067 64.8039 35.46C64.2039 35.1133 63.5239 34.94 62.7639 34.94C62.0439 34.94 61.3906 35.0933 60.8039 35.4C60.2172 35.7067 59.7439 36.1667 59.3839 36.78C59.0639 36.22 58.6039 35.7733 58.0039 35.44C57.4039 35.1067 56.7372 34.94 56.0039 34.94C55.3506 34.94 54.7572 35.0733 54.2239 35.34C53.6906 35.6067 53.2772 36 52.9839 36.52V35.18H50.8239V46ZM69.2028 50H71.4628V44.74C71.8628 45.22 72.3695 45.5933 72.9828 45.86C73.5961 46.1133 74.2628 46.24 74.9828 46.24C76.0228 46.24 76.9495 45.9933 77.7628 45.5C78.5761 44.9933 79.2161 44.3133 79.6828 43.46C80.1628 42.6067 80.4028 41.6467 80.4028 40.58C80.4028 39.5133 80.1628 38.5533 79.6828 37.7C79.2161 36.8467 78.5695 36.1733 77.7428 35.68C76.9295 35.1867 76.0095 34.94 74.9828 34.94C74.2095 34.94 73.5095 35.08 72.8828 35.36C72.2695 35.64 71.7628 36.0333 71.3628 36.54V35.18H69.2028V50ZM74.7628 44.14C74.1361 44.14 73.5695 43.9867 73.0628 43.68C72.5695 43.3733 72.1761 42.9533 71.8828 42.42C71.6028 41.8733 71.4628 41.26 71.4628 40.58C71.4628 39.9 71.6028 39.2933 71.8828 38.76C72.1761 38.2267 72.5695 37.8067 73.0628 37.5C73.5695 37.1933 74.1361 37.04 74.7628 37.04C75.4028 37.04 75.9695 37.1933 76.4628 37.5C76.9561 37.8067 77.3428 38.2267 77.6228 38.76C77.9161 39.2933 78.0628 39.9 78.0628 40.58C78.0628 41.26 77.9161 41.8733 77.6228 42.42C77.3428 42.9533 76.9561 43.3733 76.4628 43.68C75.9695 43.9867 75.4028 44.14 74.7628 44.14ZM87.6813 46.24C88.7879 46.24 89.7479 45.9867 90.5613 45.48C91.3879 44.9733 91.9679 44.3333 92.3012 43.56L90.4613 42.66C90.1946 43.1133 89.8279 43.4933 89.3613 43.8C88.9079 44.0933 88.3546 44.24 87.7013 44.24C86.8479 44.24 86.1213 43.9733 85.5213 43.44C84.9213 42.8933 84.5879 42.16 84.5213 41.24H92.5613C92.6013 41.08 92.6279 40.9067 92.6413 40.72C92.6546 40.5333 92.6613 40.3533 92.6613 40.18C92.6613 39.2467 92.4546 38.3867 92.0413 37.6C91.6413 36.8 91.0546 36.16 90.2813 35.68C89.5213 35.1867 88.5946 34.94 87.5013 34.94C86.4879 34.94 85.5746 35.1867 84.7613 35.68C83.9613 36.16 83.3279 36.8267 82.8613 37.68C82.3946 38.52 82.1613 39.48 82.1613 40.56C82.1613 41.6267 82.3946 42.5933 82.8613 43.46C83.3413 44.3133 83.9946 44.9933 84.8213 45.5C85.6479 45.9933 86.6013 46.24 87.6813 46.24ZM87.5013 36.84C88.2613 36.84 88.9013 37.08 89.4213 37.56C89.9413 38.04 90.2213 38.6667 90.2613 39.44H84.5613C84.6946 38.6133 85.0346 37.9733 85.5813 37.52C86.1279 37.0667 86.7679 36.84 87.5013 36.84ZM94.8669 46H97.1269V39.76C97.1269 38.9067 97.3535 38.2533 97.8069 37.8C98.2735 37.3333 98.8802 37.1 99.6269 37.1H100.567V35.04H99.9069C99.2535 35.04 98.6802 35.16 98.1869 35.4C97.6935 35.64 97.3069 36.0267 97.0269 36.56V35.18H94.8669V46ZM105.353 46.24C106.1 46.24 106.773 46.1133 107.373 45.86C107.973 45.5933 108.473 45.22 108.873 44.74V46H111.033V38.72C111.033 37.9733 110.846 37.32 110.473 36.76C110.1 36.1867 109.586 35.74 108.933 35.42C108.28 35.1 107.526 34.94 106.673 34.94C105.993 34.94 105.346 35.06 104.733 35.3C104.133 35.5267 103.606 35.84 103.153 36.24C102.713 36.64 102.386 37.1067 102.173 37.64L104.053 38.58C104.266 38.0733 104.593 37.6667 105.033 37.36C105.486 37.0533 106.013 36.9 106.613 36.9C107.266 36.9 107.786 37.0733 108.173 37.42C108.573 37.7533 108.773 38.1867 108.773 38.72V39.14L105.333 39.7C104.08 39.9133 103.153 40.3267 102.553 40.94C101.966 41.54 101.673 42.2733 101.673 43.14C101.673 44.0733 102.013 44.8267 102.693 45.4C103.373 45.96 104.26 46.24 105.353 46.24ZM104.033 43.06C104.033 42.6333 104.173 42.28 104.453 42C104.733 41.72 105.173 41.5333 105.773 41.44L108.773 40.92V41.5C108.773 42.0467 108.64 42.5467 108.373 43C108.12 43.4533 107.766 43.8133 107.313 44.08C106.86 44.3333 106.326 44.46 105.713 44.46C105.22 44.46 104.813 44.3333 104.493 44.08C104.186 43.8133 104.033 43.4733 104.033 43.06ZM118.16 46.12C118.347 46.12 118.553 46.1067 118.78 46.08C119.007 46.0533 119.207 46.0267 119.38 46V44.06C119.127 44.1 118.88 44.12 118.64 44.12C117.987 44.12 117.52 43.9667 117.24 43.66C116.973 43.34 116.84 42.9067 116.84 42.36V37.22H119.3V35.18H116.84V32.7H114.58V33.54C114.58 34.0467 114.44 34.4467 114.16 34.74C113.88 35.0333 113.487 35.18 112.98 35.18H112.68V37.22H114.58V42.46C114.58 43.62 114.893 44.52 115.52 45.16C116.147 45.8 117.027 46.12 118.16 46.12ZM125.446 46.24C126.126 46.24 126.732 46.1067 127.266 45.84C127.799 45.56 128.219 45.1667 128.526 44.66V46H130.666V35.18H128.426V41.56C128.426 42.3467 128.199 42.9733 127.746 43.44C127.292 43.9067 126.712 44.14 126.006 44.14C125.312 44.14 124.739 43.9133 124.286 43.46C123.846 43.0067 123.626 42.4067 123.626 41.66V35.18H121.366V41.86C121.366 42.7267 121.532 43.4933 121.866 44.16C122.212 44.8133 122.692 45.3267 123.306 45.7C123.919 46.06 124.632 46.24 125.446 46.24ZM133.304 46H135.564V39.76C135.564 38.9067 135.791 38.2533 136.244 37.8C136.711 37.3333 137.318 37.1 138.064 37.1H139.004V35.04H138.344C137.691 35.04 137.118 35.16 136.624 35.4C136.131 35.64 135.744 36.0267 135.464 36.56V35.18H133.304V46ZM145.63 46.24C146.737 46.24 147.697 45.9867 148.51 45.48C149.337 44.9733 149.917 44.3333 150.25 43.56L148.41 42.66C148.144 43.1133 147.777 43.4933 147.31 43.8C146.857 44.0933 146.304 44.24 145.65 44.24C144.797 44.24 144.07 43.9733 143.47 43.44C142.87 42.8933 142.537 42.16 142.47 41.24H150.51C150.55 41.08 150.577 40.9067 150.59 40.72C150.604 40.5333 150.61 40.3533 150.61 40.18C150.61 39.2467 150.404 38.3867 149.99 37.6C149.59 36.8 149.004 36.16 148.23 35.68C147.47 35.1867 146.544 34.94 145.45 34.94C144.437 34.94 143.524 35.1867 142.71 35.68C141.91 36.16 141.277 36.8267 140.81 37.68C140.344 38.52 140.11 39.48 140.11 40.56C140.11 41.6267 140.344 42.5933 140.81 43.46C141.29 44.3133 141.944 44.9933 142.77 45.5C143.597 45.9933 144.55 46.24 145.63 46.24ZM145.45 36.84C146.21 36.84 146.85 37.08 147.37 37.56C147.89 38.04 148.17 38.6667 148.21 39.44H142.51C142.644 38.6133 142.984 37.9733 143.53 37.52C144.077 37.0667 144.717 36.84 145.45 36.84Z" fill="white"/>
<defs>
<filter id="filter0_b_115_260" x="-12" y="-12" width="364" height="320" filterUnits="userSpaceOnUse" color-interpolation-filters="sRGB">
<feFlood flood-opacity="0" result="BackgroundImageFix"/>
<feGaussianBlur in="BackgroundImageFix" stdDeviation="6"/>
<feComposite in2="SourceAlpha" operator="in" result="effect1_backgroundBlur_115_260"/>
<feBlend mode="normal" in="SourceGraphic" in2="effect1_backgroundBlur_115_260" result="shape"/>
</filter>
<linearGradient id="paint0_linear_115_260" x1="22" y1="143.498" x2="337" y2="145.998" gradientUnits="userSpaceOnUse">
<stop stop-color="white" stop-opacity="0.11"/>
<stop offset="0.484375" stop-color="white"/>
<stop offset="1" stop-color="white" stop-opacity="0.1"/>
</linearGradient>
</defs>
</svg>
